<?xml version="1.0" encoding="UTF-8" standalone="no"?>
<!DOCTYPE svg PUBLIC "-//W3C//DTD SVG 1.1//EN" "http://www.w3.org/Graphics/SVG/1.1/DTD/svg11.dtd">
<svg width="100%" height="100%" viewBox="0 0 32 32" version="1.1" xmlns="http://www.w3.org/2000/svg" xmlns:xlink="http://www.w3.org/1999/xlink" xml:space="preserve" xmlns:serif="http://www.serif.com/" style="fill-rule:evenodd;clip-rule:evenodd;strokeLinejoin:round;stroke-miterlimit:2;">
    <path d="M32,4.703C32,2.105 29.895,0 27.297,0L4.703,0C2.105,0 0,2.105 0,4.703L0,27.297C0,29.895 2.105,32 4.703,32L27.297,32C29.895,32 32,29.895 32,27.297L32,4.703Z" style="fill:rgb(71,48,117);"/>
    <g transform="matrix(0.952875,0,0,0.952875,0.753995,0.753995)">
        <path d="M32,4.935L32,27.065C32,29.79 29.79,32 27.065,32L4.935,32C2.21,32 0,29.79 0,27.065L-0,4.935C0,2.21 2.21,0 4.935,0L27.065,-0C29.79,0 32,2.21 32,4.935ZM31.209,5.727C31.209,3.001 28.999,0.791 26.273,0.791L5.727,0.791C3.001,0.791 0.791,3.001 0.791,5.727L0.791,26.273C0.791,28.999 3.001,31.209 5.727,31.209L26.273,31.209C28.999,31.209 31.209,28.999 31.209,26.273L31.209,5.727Z" style="fill:rgb(246,242,255);"/>
    </g>
    <g transform="matrix(0.135133,0,0,0.141222,-8.44411,10.7016)">
        <path d="M181.568,116.025C195.068,114.743 200.331,113.778 208.568,111.075C216.547,108.456 222.042,106.072 223.136,104.754C223.44,104.387 223.883,104.087 224.119,104.087C225.074,104.087 230.258,100.375 233.386,97.45C242.519,88.914 246.577,79.251 246.56,66.088C246.533,46.412 235.225,33.744 211.818,27.171C206.99,25.815 205.659,25.497 203.068,25.084C201.556,24.843 197.843,24.194 194.818,23.642C191.793,23.089 188.43,22.626 187.344,22.613C186.259,22.599 183.559,22.361 181.344,22.084C176.846,21.521 166.73,20.749 155.068,20.079C121.962,18.175 110.471,14.232 107.296,3.685C106.047,-0.463 108.368,-5.86 112.85,-9.23C120.521,-14.998 134.303,-18.029 152.815,-18.019C163.277,-18.013 177.416,-16.628 181.065,-15.251C181.478,-15.095 182.603,-14.851 183.565,-14.708C185.155,-14.473 188.9,-13.544 192.815,-12.414C193.64,-12.176 195.44,-11.657 196.815,-11.26C200.811,-10.108 209.11,-6.815 215.49,-3.851C221.948,-0.851 222.075,-0.897 225.452,-7.42C226.802,-10.028 228.857,-13.905 230.019,-16.037C232.569,-20.713 232.578,-22.152 230.065,-23.573C225.935,-25.909 219.092,-29.299 216.315,-30.385C214.665,-31.03 212.64,-31.847 211.815,-32.2C210.99,-32.553 208.403,-33.44 206.065,-34.172C203.728,-34.903 201.14,-35.735 200.315,-36.021C198.718,-36.573 198.711,-36.574 186.065,-38.859C170.447,-41.681 140.303,-42.275 132.008,-39.924C131.014,-39.642 129.552,-39.409 128.759,-39.406C127.965,-39.403 125.517,-38.933 123.317,-38.362C121.117,-37.791 118.417,-37.154 117.317,-36.946C106.456,-34.894 90.991,-24.845 85.333,-16.162C80.435,-8.644 79.318,-4.103 79.705,6.711C80.092,17.501 81.887,21.89 88.676,28.642C95.282,35.211 109.443,40.317 125.317,41.852C126.967,42.012 129.217,42.356 130.317,42.618C132.285,43.085 140.763,43.858 152.067,44.6C155.229,44.807 161.979,45.361 167.067,45.83C172.154,46.299 178.792,46.869 181.817,47.097C187.473,47.523 187.998,47.59 196.067,48.915C208.786,51.003 214.856,55.307 217.769,64.302C218.756,67.349 218.762,68.656 217.803,71.838C215.493,79.51 208.967,85.208 198.067,89.069C197.105,89.41 195.867,89.865 195.317,90.08C194.414,90.432 189.614,91.344 182.067,92.596C178.905,93.121 167.398,93.851 164.067,93.738C145.099,93.097 125.967,89.527 113.817,84.361C112.992,84.011 111.305,83.325 110.067,82.838C106.046,81.255 104.379,80.514 100.512,78.589C96.96,76.822 91.865,74.076 90.009,72.93C88.645,72.087 87.574,72.948 86.247,75.957C85.548,77.542 84.465,79.963 83.84,81.338C83.216,82.713 81.985,85.526 81.107,87.588C80.228,89.651 79.267,91.829 78.972,92.43C78.676,93.03 78.559,93.846 78.712,94.242C78.973,94.925 83.264,98.088 83.928,98.088C84.099,98.088 84.594,98.4 85.028,98.782C85.961,99.603 96.564,105.088 97.217,105.088C97.464,105.088 98.432,105.426 99.367,105.838C103.421,107.626 104.519,108.035 108.067,109.078C110.13,109.684 112.367,110.399 113.039,110.667C114.284,111.164 117.041,111.82 121.067,112.577C122.305,112.81 125.23,113.365 127.568,113.812C132.267,114.709 138.95,115.538 145.818,116.074C151.971,116.555 176.347,116.522 181.568,116.026L181.568,116.025Z" style="fill:white;fill-rule:nonzero;"/>
    </g>
    <g transform="matrix(0.135133,0,0,0.141222,-10.6889,11.4698)">
        <rect x="268.708" y="-41.386" width="25.5" height="150.5" style="fill:white;fill-rule:nonzero;"/>
    </g>
</svg>
