<?xml version="1.0" encoding="UTF-8" standalone="no"?>
<!DOCTYPE svg PUBLIC "-//W3C//DTD SVG 1.1//EN" "http://www.w3.org/Graphics/SVG/1.1/DTD/svg11.dtd">
<svg width="100%" height="100%" viewBox="0 0 3118 1025" version="1.1" xmlns="http://www.w3.org/2000/svg" xmlns:xlink="http://www.w3.org/1999/xlink" xml:space="preserve" xmlns:serif="http://www.serif.com/" style="fill-rule:evenodd;clip-rule:evenodd;strokeLinejoin:round;stroke-miterlimit:2;">
    <g transform="matrix(2.08333,0,0,2.08333,0,0)">
        <g transform="matrix(2,0,0,2,-112.555,-315.151)">
            <g transform="matrix(1,0,0,1,-14.1265,-15.3037)">
                <g transform="matrix(1,0,0,1,-0.859181,-86.9766)">
                    <g>
                        <path d="M747.694,441.411L747.56,430.786L735.06,430.786L734.79,452.036L747.829,452.036L747.694,441.411Z" style="fill:white;fill-rule:nonzero;"/>
                        <path d="M747.808,489.572L747.808,473.322L773.183,473.214C796.97,473.113 801.513,473.12 804.925,473.264L806.293,473.322L806.557,505.572L819.307,505.852L819.398,469.962C819.503,429.135 819.55,431.785 818.701,431.247C817.57,430.529 807.501,430.736 806.876,431.489C806.507,431.934 806.278,436.967 806.19,446.615L806.057,461.073L735.057,461.573L734.797,505.822L747.808,505.822L747.808,489.572Z" style="fill:white;fill-rule:nonzero;"/>
                    </g>
                </g>
                <path d="M694.488,418.224C694.763,418.014 696.048,417.809 697.342,417.769C699.542,417.701 704.71,416.149 708.738,414.346C711.47,413.124 717.74,408.535 720.406,405.805C723.709,402.425 723.526,401.55 718.988,399.016C714.226,396.356 713.085,396.319 710.203,398.732C705.849,402.377 699.609,405.36 693.238,406.841C690.305,407.523 677.629,407.516 674.738,406.83C664.174,404.326 657.393,399.588 653.923,392.285C652.921,390.176 651.907,388.061 651.67,387.583C651.127,386.49 651.099,377.066 651.638,376.426C651.857,376.165 652.458,374.714 652.972,373.201C654.527,368.631 657.782,364.879 663.273,361.326C665.08,360.158 666.789,359.201 667.072,359.201C667.354,359.201 668.238,358.875 669.037,358.477C673.389,356.307 688.134,354.776 691.488,356.146C692.038,356.371 694.063,356.929 695.988,357.386C700.415,358.437 705.909,361.194 709.756,364.294C711.399,365.618 713.249,366.694 713.866,366.685C714.917,366.671 719.378,365.288 720.489,364.634C720.764,364.472 721.577,364.199 722.296,364.028C727.069,362.89 714.539,351.397 704.488,347.694C703.938,347.491 702.899,347.091 702.179,346.804C701.458,346.517 699.771,346.121 698.429,345.923C697.087,345.726 695.426,345.355 694.739,345.098C693.083,344.479 673.584,344.483 672.407,345.103C671.902,345.369 670.476,345.741 669.239,345.931C666.822,346.301 660.832,348.425 658.659,349.683C657.927,350.106 656.054,351.195 654.496,352.103C649.727,354.882 644.03,361.167 641.461,366.484C636.504,376.743 637.1,390.773 642.883,399.953C645.749,404.503 654.592,412.703 656.633,412.703C656.856,412.703 657.301,412.965 657.623,413.287C657.944,413.608 658.945,414.151 659.848,414.494C660.75,414.836 663.017,415.699 664.886,416.41C666.755,417.121 669.242,417.703 670.411,417.703C671.581,417.703 672.754,417.918 673.016,418.18C673.894,419.058 693.345,419.097 694.489,418.224L694.488,418.224Z" style="fill:white;fill-rule:nonzero;"/>
                <g transform="matrix(1,0,0,1,9.29764,5.99896)">
                    <path d="M565.739,386.107L565.989,380.357L617.987,379.857L617.987,368.357L591.987,368.096C577.687,367.952 565.931,367.783 565.862,367.721C565.344,367.249 565.825,350.547 566.362,350.372C566.706,350.26 578.462,350.057 592.487,349.921L617.987,349.673L618.134,344.765C618.214,342.066 618.153,339.351 617.999,338.732L617.719,337.607L585.282,337.607C556.164,337.607 552.814,337.688 552.542,338.398C552.117,339.504 552.16,391.363 552.586,391.788C552.777,391.979 555.758,392.073 559.211,391.997L565.488,391.857L565.739,386.107Z" style="fill:white;fill-rule:nonzero;"/>
                    <path d="M617.868,412.356C618.302,411.765 618.38,403.027 617.962,401.935C617.583,400.948 554.131,400.668 552.949,401.649C552.13,402.329 551.938,411.593 552.727,412.381C553.392,413.046 617.38,413.021 617.87,412.356L617.868,412.356Z" style="fill:white;fill-rule:nonzero;"/>
                </g>
                <g transform="matrix(1,0,0,1,-10.747,-88.5118)">
                    <path d="M561.146,444.217C561.629,444.038 561.753,442.527 561.646,438.094L561.506,432.21L478.005,432.21L477.864,437.888C477.786,441.012 477.935,443.824 478.196,444.139C478.666,444.705 559.627,444.783 561.146,444.218L561.146,444.217Z" style="fill:white;fill-rule:nonzero;"/>
                    <path d="M525.997,480.444L525.997,453.694L513.497,453.694L513.367,479.944C513.295,494.381 513.347,506.482 513.482,506.835C513.667,507.318 515.232,507.441 519.862,507.335L525.997,507.194L525.997,480.444Z" style="fill:white;fill-rule:nonzero;"/>
                </g>
                <g>
                    <path d="M182.543,418.082C183.005,416.877 182.89,344.716 182.424,343.981C182.121,343.503 180.439,343.376 175.807,343.481L169.596,343.623L169.34,373.874C169.2,390.511 169.03,403.898 168.963,403.624C168.896,403.349 168.224,402.444 167.469,401.613C166.714,400.782 165.097,398.982 163.876,397.613C162.655,396.244 157.789,391.074 153.063,386.123C148.337,381.173 143.485,376.002 142.283,374.63C140.121,372.165 135.745,367.536 126.011,357.415C119.322,350.461 119.346,350.448 119.346,360.913L119.346,368.984L126.924,377.054C131.092,381.492 136.323,387.036 138.547,389.374C140.772,391.711 143.47,394.636 144.544,395.874C145.617,397.111 149.808,401.611 153.856,405.874C157.904,410.136 162.285,414.805 163.591,416.249L165.967,418.874L174.103,418.874C181.061,418.874 182.283,418.759 182.543,418.083L182.543,418.082Z" style="fill:white;fill-rule:nonzero;"/>
                    <path d="M336.614,418.45C343.848,417.956 352.561,415.473 357.364,412.538C360.679,410.512 365.11,406.977 365.373,406.148C365.543,405.614 365.85,405.177 366.056,405.177C366.595,405.177 368.415,401.798 369.335,399.09C370.02,397.07 370.106,393.296 369.993,370.097L369.864,343.427L363.869,343.284C358.668,343.161 357.792,343.256 357.244,344.005C356.757,344.671 356.614,350.378 356.614,369.053L356.614,393.239L355.277,395.968C352.3,402.048 345.471,405.421 334.614,406.173C317.352,407.368 306.877,404.206 302.327,396.426L300.865,393.926L300.722,368.944C300.613,350.029 300.431,343.869 299.972,343.577C299.638,343.365 296.731,343.188 293.512,343.184L287.66,343.175L287.361,344.8C286.681,348.49 287.38,397.848 288.139,399.676C291.059,406.719 294.785,410.022 305.631,415.183C306.053,415.384 307.17,415.718 308.115,415.925C309.059,416.132 310.177,416.474 310.598,416.685C312.056,417.412 317.885,418.329 323.115,418.652C328.285,418.971 329.153,418.958 336.615,418.448L336.614,418.45Z" style="fill:white;fill-rule:nonzero;"/>
                    <path d="M107.974,418.167C108.972,417.339 109.053,345.387 108.058,344.027C107.511,343.278 106.635,343.183 101.433,343.306L95.438,343.448L95.31,380.644C95.234,402.777 95.368,418.065 95.642,418.393C96.276,419.157 107.019,418.961 107.974,418.169L107.974,418.167Z" style="fill:white;fill-rule:nonzero;"/>
                    <path d="M84.084,418.224C84.786,417.522 84.96,345.033 84.262,343.933C83.959,343.455 82.277,343.328 77.645,343.433L71.434,343.574L71.305,380.575C71.234,400.925 71.283,417.856 71.414,418.199C71.742,419.059 83.227,419.081 84.084,418.225L84.084,418.224Z" style="fill:white;fill-rule:nonzero;"/>
                    <path d="M251.093,418.11C262.254,416.352 271.401,410.684 274.853,403.387C276.984,398.883 277.081,389.668 275.04,385.572C272.231,379.935 265.964,375.567 258.343,373.934C252.278,372.635 248.24,371.986 244.593,371.724C242.393,371.566 239.468,371.316 238.093,371.167C236.718,371.018 232.668,370.719 229.093,370.503C217.888,369.824 212.049,368.246 209.344,365.165C205.288,360.546 209.529,355.534 219.343,353.348C222.605,352.621 237.87,352.317 238.519,352.966C238.807,353.254 239.617,353.49 240.318,353.49C244.187,353.49 254.331,356.53 260.65,359.584C264.028,361.216 264.76,360.817 267.198,356.016C270.275,349.956 270.287,349.988 263.843,346.848C256.007,343.03 251.372,341.933 236.711,340.43C230.905,339.834 215.607,340.887 214.093,341.987C213.818,342.186 212.811,342.498 211.855,342.68C210.239,342.987 208.047,343.879 203.911,345.913C197.808,348.915 193.742,355.466 193.442,362.783C193.007,373.408 198.835,379.264 212.093,381.519C217.675,382.469 226.989,383.54 233.593,383.99C252.358,385.269 256.291,386.11 259.659,389.559C261.487,391.431 261.593,391.71 261.593,394.669C261.593,402.516 252.058,407.017 235.593,406.944C229.833,406.918 228.445,406.779 221.46,405.527C216.644,404.664 209.626,402.179 203.962,399.332C197.529,396.097 197.812,395.988 194.597,402.959C192.191,408.175 193.512,409.972 202.343,413.496C203.855,414.1 205.543,414.775 206.093,414.997C209.642,416.427 216.43,417.99 219.095,417.99C220.299,417.99 221.431,418.229 221.611,418.52C222.011,419.167 246.552,418.825 251.091,418.11L251.093,418.11Z" style="fill:white;fill-rule:nonzero;"/>
                </g>
                <g transform="matrix(1,0,0,1,-8.9382,-89.4189)">
                    <path d="M403.71,485.49L403.658,508.084L397.415,508.237C393.391,508.336 390.902,508.193 390.415,507.836C389.405,507.096 389.252,434.248 390.258,433.242C391.052,432.447 437.574,432.388 443.408,433.175C453.756,434.571 459.392,438.036 463.05,445.251C466.055,451.177 466.303,462.465 463.543,467.636C462.155,470.237 457.793,475.142 456.868,475.142C456.477,475.142 456.158,475.336 456.158,475.574C456.158,476.15 450.556,478.642 449.261,478.642C446.94,478.642 446.572,479.141 447.783,480.645C448.402,481.413 449.662,483.133 450.584,484.467C451.506,485.801 454.286,489.804 456.761,493.362C467.407,508.665 467.392,508.237 457.267,508.031L450.426,507.892L447.809,504.142C446.369,502.08 444.452,499.385 443.549,498.154C442.646,496.923 441.817,495.695 441.706,495.425C441.596,495.155 437.696,489.561 433.041,482.993C428.386,476.425 423.977,470.112 423.243,468.963C422.508,467.814 418.542,462.097 414.428,456.258C407.735,446.758 406.803,445.642 405.553,445.642C404.786,445.642 404.152,445.811 404.143,446.017C403.925,451.933 403.752,467.721 403.71,485.49ZM444.076,465.534C450.322,465.181 453.485,456.794 451.657,450.863C448.895,441.904 445.652,440.827 429.789,440.827L417.886,440.946C423.233,448.378 425.216,451.185 430.184,457.828C431.879,460.093 432.25,461.05 433.063,462.078C435.847,465.299 434.884,466.053 444.076,465.534Z" style="fill:white;"/>
                </g>
            </g>
            <g transform="matrix(1,0,0,1,-22.3671,198.95)">
                <path d="M473.953,108.241C474.86,107.182 477.654,101.978 484.089,89.366C489.946,77.886 490.946,76.137 491.979,75.558C492.438,75.301 513.555,75.165 541.617,75.238L590.455,75.366L591.568,77.366C594.003,81.742 597.415,88.259 601.386,96.116C605.565,104.385 607.66,108.047 608.602,108.733C608.88,108.935 614.893,109.104 621.964,109.108C637.265,109.117 636.943,109.25 634.345,104.012C633.496,102.302 632.606,100.666 632.367,100.378C632.128,100.09 630.646,97.382 629.073,94.36C622.556,81.836 618.647,74.422 614.709,67.116C613.597,65.053 611.517,61.116 610.085,58.366C608.654,55.616 605.849,50.328 603.852,46.616C601.855,42.904 598.946,37.391 597.388,34.366C595.83,31.341 593.86,27.629 593.012,26.116C592.163,24.604 590.408,21.341 589.112,18.866C584.609,10.266 582.01,5.345 580.003,1.616C577.453,-3.12 573.957,-9.709 570.586,-16.134C569.143,-18.884 566.445,-23.946 564.592,-27.384C562.738,-30.821 560.327,-35.378 559.232,-37.509L557.243,-41.384L524.491,-41.384L522.495,-37.509C518.212,-29.197 512.79,-18.854 509.585,-12.884C507.739,-9.446 505.171,-4.609 503.879,-2.134C502.586,0.341 500.839,3.604 499.997,5.116C498.5,7.803 496.375,11.791 492.136,19.866C490.982,22.066 489.096,25.583 487.946,27.68C484.32,34.297 484.14,34.208 500.653,34.015C512.746,33.874 513.459,33.814 514.017,32.881C514.341,32.339 516.819,27.614 519.523,22.381C522.228,17.148 524.776,12.342 525.186,11.702C525.938,10.525 528.526,5.648 533.985,-4.884C535.624,-8.046 537.153,-10.867 537.383,-11.152C537.612,-11.437 538.517,-13.114 539.392,-14.878L540.985,-18.087L541.795,-16.522C542.241,-15.662 543.268,-13.647 544.077,-12.046C544.887,-10.444 546.713,-6.996 548.137,-4.384C549.56,-1.771 552.022,2.841 553.608,5.866C558.682,15.543 560.407,18.792 562.238,22.116C563.223,23.904 565.315,27.841 566.887,30.866C568.459,33.891 570.523,37.829 571.473,39.616C572.423,41.404 573.95,44.329 574.866,46.116C575.782,47.904 576.957,49.984 577.476,50.739L578.421,52.112L474.778,52.366L472.11,57.366C470.643,60.116 468.344,64.504 467.003,67.116C465.662,69.729 463.523,73.779 462.251,76.116C457.95,84.02 454.886,89.844 451.991,95.616C450.405,98.779 448.981,101.479 448.827,101.617C448.14,102.231 445.857,106.827 445.857,107.596C445.857,109.075 446.239,109.117 459.863,109.117C471.948,109.117 473.273,109.034 473.951,108.242L473.953,108.241Z" style="fill:white;fill-rule:nonzero;"/>
                <path d="M423.666,97.43C423.761,89.598 423.63,86.036 423.23,85.555C422.754,84.981 415.973,84.867 382.473,84.867L342.287,84.867L342.033,-41.383L316.533,-41.383L316.396,32.619C316.32,73.318 316.382,107.127 316.531,107.745L316.803,108.872L423.533,108.618L423.666,97.43Z" style="fill:white;fill-rule:nonzero;"/>
                <rect x="268.708" y="-41.386" width="25.5" height="150.5" style="fill:white;fill-rule:nonzero;"/>
                <path d="M764.561,115.693C765.111,115.426 766.798,115.106 768.311,114.981C774.125,114.501 784.375,112.265 790.311,110.18C796.851,107.884 807.915,101.93 809.811,99.688C809.948,99.525 811.002,98.601 812.152,97.634C815.03,95.214 819.119,90.001 820.898,86.485C822.487,83.342 824.88,76.687 824.593,76.206C824.497,76.045 824.721,74.459 825.09,72.682C826.953,63.708 824.349,51.724 818.854,43.973C813.003,35.722 797.518,27.895 781.561,25.122C768.632,22.875 763.899,22.323 752.31,21.709C748.048,21.483 742.985,21.046 741.06,20.738C739.135,20.429 734.298,20.068 730.31,19.934C714.333,19.398 703.807,17.492 694.809,13.506C690.363,11.536 685.795,5.557 685.816,1.736C685.842,-3.136 690.645,-9.4 696.309,-11.953C702.123,-14.574 702.646,-14.733 710.059,-16.144C727.546,-19.471 753.571,-18.22 768.81,-13.319C769.497,-13.098 771.41,-12.543 773.06,-12.086C774.71,-11.629 776.799,-10.936 777.702,-10.546C778.605,-10.156 779.773,-9.837 780.297,-9.837C780.822,-9.837 781.39,-9.612 781.56,-9.337C781.73,-9.062 782.287,-8.837 782.799,-8.837C783.31,-8.837 784.366,-8.52 785.144,-8.132C785.923,-7.745 787.797,-6.923 789.31,-6.306C790.822,-5.689 793.635,-4.453 795.56,-3.559C801.466,-0.817 800.896,-0.551 804.714,-7.837C806.083,-10.45 808.148,-14.345 809.303,-16.493C811.869,-21.266 811.758,-22.222 808.442,-23.93C807.132,-24.605 804.935,-25.739 803.56,-26.451C801.418,-27.559 795.938,-30.003 792.56,-31.356C787.644,-33.326 778.449,-36.188 774.966,-36.833C773.642,-37.078 770.422,-37.739 767.81,-38.303C765.197,-38.866 762.314,-39.329 761.402,-39.332C760.49,-39.335 759.365,-39.535 758.902,-39.776C758.439,-40.017 755.022,-40.371 751.31,-40.562C747.597,-40.753 742.215,-41.062 739.348,-41.248C736.482,-41.435 731.869,-41.429 729.098,-41.235C726.327,-41.041 721.264,-40.747 717.846,-40.58C714.428,-40.413 711.237,-40.066 710.754,-39.807C710.271,-39.549 709.289,-39.337 708.572,-39.337C706.64,-39.337 699.634,-37.832 699.085,-37.298C698.823,-37.045 698.053,-36.837 697.372,-36.837C695.624,-36.837 689.306,-34.6 684.357,-32.229C676.353,-28.393 670.988,-24.316 666.328,-18.527C663.832,-15.427 662.754,-13.591 660.782,-9.088C657.624,-1.873 658.097,12.635 661.76,20.914C664.92,28.059 674.001,34.747 684.81,37.889C686.322,38.329 688.235,38.894 689.06,39.144C690.971,39.723 695.576,40.6 700.06,41.238C701.985,41.512 704.91,41.939 706.56,42.186C708.21,42.434 712.372,42.874 715.81,43.165C719.247,43.455 723.522,43.914 725.31,44.185C727.097,44.457 731.26,44.772 734.56,44.887C737.86,45.002 743.035,45.314 746.06,45.581C749.085,45.848 754.71,46.327 758.56,46.646C762.41,46.966 766.685,47.423 768.06,47.663C769.435,47.903 772.247,48.328 774.31,48.608C786.959,50.325 793.944,55.082 797.055,64.099C800.185,73.172 792.292,83.947 779.06,88.663C777.41,89.251 775.61,89.917 775.06,90.142C773.973,90.586 770.023,91.515 766.06,92.256C764.685,92.514 761.535,92.826 759.06,92.951C756.585,93.076 752.354,93.399 749.657,93.67C746.417,93.996 742.769,93.994 738.907,93.665C735.691,93.39 730.922,93.066 728.31,92.944C725.698,92.823 722.322,92.48 720.81,92.183C719.298,91.886 716.598,91.366 714.81,91.028C713.023,90.689 711.335,90.269 711.06,90.095C710.785,89.921 709.548,89.612 708.31,89.41C707.073,89.208 704.935,88.652 703.56,88.174C702.185,87.696 699.035,86.669 696.56,85.892C694.085,85.115 691.616,84.183 691.074,83.821C690.532,83.459 689.756,83.162 689.351,83.162C688.495,83.162 675.807,77.023 671.913,74.725C668.087,72.467 666.99,72.611 665.738,75.537C665.18,76.844 664.099,79.263 663.338,80.913C662.576,82.563 661.223,85.6 660.331,87.662C659.439,89.725 658.507,91.803 658.26,92.281C657.382,93.977 657.851,94.708 661.185,96.846C665.158,99.393 672.924,103.663 675.06,104.476C675.885,104.789 678.965,105.972 681.903,107.104C684.842,108.236 687.601,109.162 688.035,109.162C688.469,109.162 689.215,109.366 689.692,109.615C690.17,109.864 692.023,110.441 693.811,110.898C695.598,111.354 697.752,111.937 698.596,112.195C699.44,112.452 700.914,112.662 701.871,112.662C702.828,112.662 703.824,112.869 704.086,113.121C704.58,113.599 711.201,114.558 716.811,114.965C718.598,115.095 720.511,115.415 721.061,115.677C722.959,116.581 762.699,116.595 764.561,115.691L764.561,115.693Z" style="fill:white;fill-rule:nonzero;"/>
                <path d="M181.568,116.025C195.068,114.743 200.331,113.778 208.568,111.075C216.547,108.456 222.042,106.072 223.136,104.754C223.44,104.387 223.883,104.087 224.119,104.087C225.074,104.087 230.258,100.375 233.386,97.45C242.519,88.914 246.577,79.251 246.56,66.088C246.533,46.412 235.225,33.744 211.818,27.171C206.99,25.815 205.659,25.497 203.068,25.084C201.556,24.843 197.843,24.194 194.818,23.642C191.793,23.089 188.43,22.626 187.344,22.613C186.259,22.599 183.559,22.361 181.344,22.084C176.846,21.521 166.73,20.749 155.068,20.079C121.962,18.175 110.471,14.232 107.296,3.685C106.047,-0.463 108.368,-5.86 112.85,-9.23C120.521,-14.998 134.303,-18.029 152.815,-18.019C163.277,-18.013 177.416,-16.628 181.065,-15.251C181.478,-15.095 182.603,-14.851 183.565,-14.708C185.155,-14.473 188.9,-13.544 192.815,-12.414C193.64,-12.176 195.44,-11.657 196.815,-11.26C200.811,-10.108 209.11,-6.815 215.49,-3.851C221.948,-0.851 222.075,-0.897 225.452,-7.42C226.802,-10.028 228.857,-13.905 230.019,-16.037C232.569,-20.713 232.578,-22.152 230.065,-23.573C225.935,-25.909 219.092,-29.299 216.315,-30.385C214.665,-31.03 212.64,-31.847 211.815,-32.2C210.99,-32.553 208.403,-33.44 206.065,-34.172C203.728,-34.903 201.14,-35.735 200.315,-36.021C198.718,-36.573 198.711,-36.574 186.065,-38.859C170.447,-41.681 140.303,-42.275 132.008,-39.924C131.014,-39.642 129.552,-39.409 128.759,-39.406C127.965,-39.403 125.517,-38.933 123.317,-38.362C121.117,-37.791 118.417,-37.154 117.317,-36.946C106.456,-34.894 90.991,-24.845 85.333,-16.162C80.435,-8.644 79.318,-4.103 79.705,6.711C80.092,17.501 81.887,21.89 88.676,28.642C95.282,35.211 109.443,40.317 125.317,41.852C126.967,42.012 129.217,42.356 130.317,42.618C132.285,43.085 140.763,43.858 152.067,44.6C155.229,44.807 161.979,45.361 167.067,45.83C172.154,46.299 178.792,46.869 181.817,47.097C187.473,47.523 187.998,47.59 196.067,48.915C208.786,51.003 214.856,55.307 217.769,64.302C218.756,67.349 218.762,68.656 217.803,71.838C215.493,79.51 208.967,85.208 198.067,89.069C197.105,89.41 195.867,89.865 195.317,90.08C194.414,90.432 189.614,91.344 182.067,92.596C178.905,93.121 167.398,93.851 164.067,93.738C145.099,93.097 125.967,89.527 113.817,84.361C112.992,84.011 111.305,83.325 110.067,82.838C106.046,81.255 104.379,80.514 100.512,78.589C96.96,76.822 91.865,74.076 90.009,72.93C88.645,72.087 87.574,72.948 86.247,75.957C85.548,77.542 84.465,79.963 83.84,81.338C83.216,82.713 81.985,85.526 81.107,87.588C80.228,89.651 79.267,91.829 78.972,92.43C78.676,93.03 78.559,93.846 78.712,94.242C78.973,94.925 83.264,98.088 83.928,98.088C84.099,98.088 84.594,98.4 85.028,98.782C85.961,99.603 96.564,105.088 97.217,105.088C97.464,105.088 98.432,105.426 99.367,105.838C103.421,107.626 104.519,108.035 108.067,109.078C110.13,109.684 112.367,110.399 113.039,110.667C114.284,111.164 117.041,111.82 121.067,112.577C122.305,112.81 125.23,113.365 127.568,113.812C132.267,114.709 138.95,115.538 145.818,116.074C151.971,116.555 176.347,116.522 181.568,116.026L181.568,116.025Z" style="fill:white;fill-rule:nonzero;"/>
            </g>
        </g>
    </g>
</svg>
